<svg xmlns="http://www.w3.org/2000/svg" viewBox="0 0 200 200">
    <!-- 배경 원 -->
    <circle cx="100" cy="100" r="90" fill="#0066cc"/>
    
    <!-- 첫 번째 Q -->
    <path d="
        M 70 60
        A 30 30 0 1 1 70 120
        A 30 30 0 1 1 70 60
        M 70 75
        A 15 15 0 1 0 70 105
        A 15 15 0 1 0 70 75
        L 90 125
    " fill="white"/>
    
    <!-- 두 번째 Q -->
    <path d="
        M 130 80
        A 30 30 0 1 1 130 140
        A 30 30 0 1 1 130 80
        M 130 95
        A 15 15 0 1 0 130 125
        A 15 15 0 1 0 130 95
        L 150 145
    " fill="white"/>
    
    <!-- 연결선 -->
    <path d="M 85 90 L 115 110" 
        stroke="white" 
        stroke-width="8"
        stroke-linecap="round"/>
</svg>